<?xml version="1.0" encoding="utf-8"?>
<!-- Generator: Adobe Illustrator 21.1.0, SVG Export Plug-In . SVG Version: 6.00 Build 0)  -->
<svg version="1.1" id="Layer_1" xmlns="http://www.w3.org/2000/svg" xmlns:xlink="http://www.w3.org/1999/xlink" x="0px" y="0px"
	 viewBox="0 0 254 248" style="enable-background:new 0 0 254 248;" xml:space="preserve">
<style type="text/css">
	.st0{fill:#E0C44F;}
	.st1{fill:#00BCEB;}
	.st2{fill:#FFFFFF;}
</style>
<g>
	<path class="st0" d="M248.5,123.3c0,64.3-56.1,118.2-121.8,118.2S7.5,189.3,7.5,125S60.8,8.5,126.7,8.5S248.5,59,248.5,123.3z	">
<animateTransform  accumulate="none" additive="replace" attributeName="transform" attributeType="XML" calcMode="spline" dur="1s" fill="remove" id="wdfsdfdsf" keySplines="0.4 0 0.2 1; 0.4 0 0.2 1" repeatCount="indefinite" restart="always" type="translate" values="5,0;0,0;5,0">
			</animateTransform>
	</path>
</g>
<g>
	<path class="st1" d="M247,123.3c0,63.9-54.4,117.4-118.3,117.4S13,188.9,13,125S64.8,9.3,128.7,9.3S247,59.4,247,123.3z"/>
</g>
<g>
	<path class="st2" d="M73,134L73,134c-1.5,0-2.8-1.3-2.8-2.8v-13.4c0-1.5,1.3-2.8,2.8-2.8l0,0c1.5,0,2.8,1.3,2.8,2.8v13.4
		C75.8,132.7,74.5,134,73,134z	">
<animateTransform  accumulate="none" additive="replace" attributeName="transform" attributeType="XML" begin=".1" calcMode="linear" dur="0.7s" fill="remove" id="wdfsdf" repeatCount="indefinite" restart="always" type="translate" values="0,10;0,-10;0,10">
			</animateTransform>
	</path>
</g>
<g>
	<path class="st2" d="M86.6,139L86.6,139c-1.5,0-2.7-1.2-2.7-2.7v-23.6c0-1.5,1.2-2.7,2.7-2.7l0,0c1.5,0,2.7,1.2,2.7,2.7v23.6
		C89.3,137.8,88,139,86.6,139z	">
<animateTransform  accumulate="none" additive="replace" attributeName="transform" attributeType="XML" begin=".2" calcMode="linear" dur="0.7s" fill="remove" id="wdfsdf" repeatCount="indefinite" restart="always" type="translate" values="0,10;0,-10;0,10">
			</animateTransform>
	</path>
</g>
<g>
	<path class="st2" d="M100.4,148h-0.6c-1.5,0-2.8-1.3-2.8-2.8v-42.4c0-1.5,1.3-2.8,2.8-2.8h0.6c1.5,0,2.8,1.3,2.8,2.8v42.4
		C103.2,146.7,101.9,148,100.4,148z	">
<animateTransform  accumulate="none" additive="replace" attributeName="transform" attributeType="XML" begin=".3" calcMode="linear" dur="0.7s" fill="remove" id="wdfsdf" repeatCount="indefinite" restart="always" type="translate" values="0,10;0,-10;0,10">
			</animateTransform>
	</path>
</g>
<g>
	<path class="st2" d="M114.1,139L114.1,139c-1.5,0-2.7-1.2-2.7-2.7v-23.6c0-1.5,1.2-2.7,2.7-2.7l0,0c1.5,0,2.7,1.2,2.7,2.7v23.6
		C116.8,137.8,115.6,139,114.1,139z	">
<animateTransform  accumulate="none" additive="replace" attributeName="transform" attributeType="XML" begin=".1" calcMode="linear" dur="0.7s" fill="remove" id="wdfsdf" repeatCount="indefinite" restart="always" type="translate" values="0,10;0,-10;0,10">
			</animateTransform>
	</path>
</g>
<g>
	<path class="st2" d="M140,139L140,139c-1.5,0-2.7-1.2-2.7-2.7v-23.6c0-1.5,1.2-2.7,2.7-2.7l0,0c1.5,0,2.7,1.2,2.7,2.7v23.6
		C142.7,137.8,141.4,139,140,139z	">
<animateTransform  accumulate="none" additive="replace" attributeName="transform" attributeType="XML" begin=".2" calcMode="linear" dur="0.7s" fill="remove" id="wdfsdf" repeatCount="indefinite" restart="always" type="translate" values="0,10;0,-10;0,10">
			</animateTransform>
	</path>
</g>
<g>
	<path class="st2" d="M127,134L127,134c-1.5,0-2.8-1.3-2.8-2.8v-13.4c0-1.5,1.3-2.8,2.8-2.8l0,0c1.5,0,2.8,1.3,2.8,2.8v13.4
		C129.8,132.7,128.5,134,127,134z	">
<animateTransform  accumulate="none" additive="replace" attributeName="transform" attributeType="XML" begin=".3" calcMode="linear" dur="0.7s" fill="remove" id="wdfsdf" repeatCount="indefinite" restart="always" type="translate" values="0,10;0,-10;0,10">
			</animateTransform>
	</path>
</g>
<g>
	<path class="st2" d="M154.4,148h-0.6c-1.5,0-2.8-1.3-2.8-2.8v-42.4c0-1.5,1.3-2.8,2.8-2.8h0.6c1.5,0,2.8,1.3,2.8,2.8v42.4
		C157.2,146.7,155.9,148,154.4,148z	">
<animateTransform  accumulate="none" additive="replace" attributeName="transform" attributeType="XML" begin=".1" calcMode="linear" dur="0.7s" fill="remove" id="wdfsdf" repeatCount="indefinite" restart="always" type="translate" values="0,10;0,-10;0,10">
			</animateTransform>
	</path>
</g>
<g>
	<path class="st2" d="M168,139L168,139c-1.5,0-2.7-1.2-2.7-2.7v-23.6c0-1.5,1.2-2.7,2.7-2.7l0,0c1.5,0,2.7,1.2,2.7,2.7v23.6
		C170.7,137.8,169.4,139,168,139z	">
<animateTransform  accumulate="none" additive="replace" attributeName="transform" attributeType="XML" begin=".2" calcMode="linear" dur="0.7s" fill="remove" id="wdfsdf" repeatCount="indefinite" restart="always" type="translate" values="0,10;0,-10;0,10">
			</animateTransform>
	</path>
</g>
<g>
	<path class="st2" d="M181,133L181,133c-1.5,0-2.8-1.3-2.8-2.8v-13.4c0-1.5,1.3-2.8,2.8-2.8l0,0c1.5,0,2.8,1.3,2.8,2.8v13.4
		C183.8,131.7,182.5,133,181,133z	">
<animateTransform  accumulate="none" additive="replace" attributeName="transform" attributeType="XML" begin=".3" calcMode="linear" dur="0.7s" fill="remove" id="wdfsdf" repeatCount="indefinite" restart="always" type="translate" values="0,10;0,-10;0,10">
			</animateTransform>
	</path>
</g>
</svg>
